<svg width="142" height="125" viewBox="0 0 142 125" fill="none" xmlns="http://www.w3.org/2000/svg">
<path d="M104.8 11.85C102.54 9.22 98.47 9.22 96.21 11.85C91.49 17.35 83.61 27.06 76.37 38.41C68.12 23.88 57.88 10.81 51.35 3.04C47.95 -1.01 41.73 -1.01 38.33 3.04C25.9 17.83 0 51.87 0 78.62C0 113.81 28.07 124.62 44.84 124.62C53.18 124.62 64.32 121.94 73.41 114.93C81.87 121.96 92.57 124.62 100.51 124.62C115.8 124.62 141.39 114.77 141.39 82.69C141.39 57.06 115.3 24.09 104.8 11.86V11.85Z" fill="#2054A6"/>
</svg>
