<svg width="120" height="156" viewBox="0 0 120 156" fill="none" xmlns="http://www.w3.org/2000/svg">
<path d="M116.22 65.91H88.61L104.12 50.4C105.23 49.29 105.23 47.5 104.12 46.39L91.09 33.36C89.98 32.25 88.19 32.25 87.08 33.36L71.57 48.87V2.83C71.57 1.26 70.3 0 68.74 0H50.31C48.74 0 47.48 1.27 47.48 2.83V48.86L31.97 33.35C30.86 32.24 29.07 32.24 27.96 33.35L14.93 46.38C13.82 47.49 13.82 49.28 14.93 50.39L30.44 65.9H2.83C1.26 65.9 0 67.17 0 68.73V87.16C0 88.73 1.27 89.99 2.83 89.99H30.44L14.93 105.5C13.82 106.61 13.82 108.4 14.93 109.51L27.96 122.54C29.07 123.65 30.86 123.65 31.97 122.54L47.48 107.03V153.06C47.48 154.63 48.75 155.89 50.31 155.89H68.74C70.31 155.89 71.57 154.62 71.57 153.06V107.03L87.08 122.54C88.19 123.65 89.98 123.65 91.09 122.54L104.12 109.51C105.23 108.4 105.23 106.61 104.12 105.5L88.61 89.99H116.22C117.79 89.99 119.05 88.72 119.05 87.16V68.73C119.05 67.16 117.78 65.9 116.22 65.9V65.91Z" fill="#F2E544"/>
</svg>
